<svg width="32" height="32" viewBox="0 0 32 32" fill="none" xmlns="http://www.w3.org/2000/svg">
<path d="M24.4599 10.4337V5.99395C24.4599 4.89292 23.5669 4 22.4659 4C21.3649 4 20.4719 4.89292 20.4719 5.99395V10.4337V12.4276H22.8199C23.7252 12.4276 24.4581 11.693 24.4581 10.7894V10.4337H24.4599Z" fill="#00CEBB"/>
<path d="M20.472 14.4212H15.4346C14.3336 14.4212 13.4407 13.5283 13.4407 12.4272C13.4407 11.3262 14.3336 10.4333 15.4346 10.4333H20.472H20.826C21.7314 10.4333 22.4642 11.1661 22.4642 12.0715V14.4212H20.472Z" fill="#00CEBB"/>
<path d="M24.4599 14.4216V18.9342C24.4599 20.0352 23.5669 20.9281 22.4659 20.9281C21.3649 20.9281 20.4719 20.0352 20.4719 18.9342V14.4216V14.0676C20.4719 13.1622 21.2065 12.4294 22.1101 12.4294H24.4581V14.0676V14.4216H24.4599Z" fill="#00CEBB"/>
<path d="M29.44 10.4333H24.4595V10.7873C24.4595 11.6926 23.7249 12.4255 22.8213 12.4255H22.4656V12.7794C22.4656 13.6848 23.2002 14.4194 24.1056 14.4194H24.4595H29.44C30.541 14.4194 31.4339 13.5265 31.4339 12.4255C31.4339 11.3262 30.541 10.4333 29.44 10.4333Z" fill="#00CEBB"/>
<path d="M16.9695 22.7513L6.5817 5.80359H0.665649L13.2715 26.1274C13.6788 26.7926 14.1395 27.3067 14.6536 27.6713C15.1676 28.0359 15.9076 28.2174 16.8716 28.2174C17.8357 28.2174 18.5757 28.0342 19.0915 27.6713C19.3459 27.4916 19.586 27.2764 19.8137 27.0238L16.9695 22.7513Z" fill="#00CEBB"/>
</svg>
